<svg xmlns="http://www.w3.org/2000/svg" xmlns:xlink="http://www.w3.org/1999/xlink" width="500" zoomAndPan="magnify" viewBox="0 0 375 374.999991" height="500" preserveAspectRatio="xMidYMid meet" version="1.0"><defs><clipPath id="42de8c0d4d"><path d="M 20 86.585938 L 355 86.585938 L 355 288.335938 L 20 288.335938 Z M 20 86.585938 " clip-rule="nonzero"/></clipPath><clipPath id="7c7dbdf059"><path d="M 20 86.585938 L 186.90625 86.585938 L 186.90625 288.335938 L 20 288.335938 Z M 20 86.585938 " clip-rule="nonzero"/></clipPath><clipPath id="ff031d5e1c"><path d="M 20 202.625 L 355 202.625 L 355 288.125 L 20 288.125 Z M 20 202.625 " clip-rule="nonzero"/></clipPath></defs><g clip-path="url(#42de8c0d4d)"><path fill="#3577cd" d="M 187.445312 185.3125 C 188.246094 186.597656 210.082031 225.335938 212.21875 229.257812 C 212.238281 229.289062 211.097656 230.988281 211 231.730469 C 210.816406 233.136719 211.222656 234.484375 211.5625 235.855469 C 210.3125 235.9375 208.855469 235.957031 207.394531 235.957031 C 206.113281 235.957031 204.832031 235.941406 203.683594 235.941406 C 203.570312 235.941406 203.457031 235.941406 203.34375 235.941406 C 202.15625 234.703125 200.484375 232.828125 199.035156 232.003906 L 198.851562 231.90625 C 197.488281 231.132812 196.089844 231.027344 194.542969 230.804688 C 194.371094 230.035156 194.179688 229.265625 193.976562 228.503906 C 193.460938 226.597656 192.199219 224.980469 190.472656 224.015625 C 189.398438 223.417969 188.214844 223.171875 187.015625 223.171875 C 185.90625 223.171875 184.785156 223.382812 183.730469 223.71875 C 180.367188 224.789062 180.027344 228.921875 179.050781 230.847656 L 178.464844 231.015625 C 174.378906 231.894531 173.835938 232.625 171.371094 236.003906 C 170.652344 236.035156 169.867188 236.046875 169.050781 236.046875 C 166.902344 236.046875 164.542969 235.964844 162.601562 235.945312 C 162.554688 234.691406 162.5 233.4375 162.425781 232.183594 C 162.230469 229.296875 161.960938 230.480469 160.488281 229.199219 C 161.042969 227.476562 164.417969 222.179688 165.46875 220.433594 C 172.332031 209.019531 178.375 197.003906 185.148438 185.570312 L 185.167969 185.570312 C 185.164062 189.25 185.085938 192.929688 184.929688 196.609375 C 183.933594 197.566406 183.746094 197.589844 184.347656 198.742188 C 184.839844 199.132812 185.316406 199.503906 185.964844 199.503906 C 186.003906 199.503906 186.046875 199.503906 186.085938 199.5 C 186.84375 199.449219 187.34375 199.351562 187.902344 198.769531 C 188.351562 198.300781 188.160156 198.355469 188.3125 197.675781 C 188.3125 197.675781 187.558594 196.601562 187.558594 196.601562 C 187.464844 193.261719 187.445312 188.511719 187.421875 185.3125 Z M 209.984375 237.605469 L 208.316406 240.179688 C 208.0625 240.460938 207.917969 240.515625 207.601562 240.722656 C 206.492188 240.117188 205.628906 238.921875 205.453125 237.664062 Z M 166.53125 237.699219 C 167.277344 237.699219 167.953125 237.761719 168.367188 237.988281 L 168.425781 238.496094 L 167.300781 239.804688 C 166.539062 240.660156 166.867188 240.511719 165.949219 240.789062 C 164.996094 240.417969 164.199219 238.75 163.628906 237.796875 L 163.648438 237.796875 C 163.6875 237.796875 163.730469 237.800781 163.769531 237.800781 C 164.539062 237.800781 165.589844 237.699219 166.53125 237.699219 Z M 185.984375 86.539062 C 183.78125 88.089844 183.261719 90.875 182.382812 93.480469 C 132.8125 121.917969 84.179688 151.953125 36.554688 183.539062 C 33.640625 185.488281 21.121094 193.335938 20.082031 195.304688 L 20.304688 195.84375 C 21.816406 195.761719 24.175781 193.28125 27.53125 192.75 C 36.460938 191.320312 45.398438 189.773438 54.359375 188.554688 C 67.25 186.800781 80.210938 184.503906 93.246094 184.503906 C 94.949219 184.503906 96.652344 184.542969 98.355469 184.625 C 98.679688 184.640625 99.082031 184.644531 99.527344 184.644531 L 99.753906 184.644531 C 101.585938 184.644531 104.027344 184.660156 104.941406 185.570312 L 105.148438 185.765625 C 105.335938 185.949219 105.496094 186.113281 105.671875 186.300781 L 106.253906 186.382812 C 106.398438 185.75 106.398438 185.640625 106.394531 184.984375 C 107.808594 184.257812 110.648438 183.570312 112.257812 183.066406 C 117.367188 181.46875 122.5625 180.824219 127.777344 180.824219 C 135.238281 180.824219 142.75 182.140625 150.128906 183.84375 C 150.5625 184.515625 150.539062 184.671875 150.667969 185.484375 L 151.085938 185.554688 C 151.277344 184.882812 151.242188 184.691406 151.230469 183.980469 C 152.574219 182.886719 181.375 174.578125 185.042969 173.90625 L 185.066406 173.90625 L 185.054688 181.96875 C 183.292969 184.324219 180.757812 189.125 179.269531 191.835938 L 169.871094 208.945312 C 167.292969 213.546875 154.675781 234.679688 153.664062 238.320312 L 153.921875 238.570312 C 155.019531 237.914062 155.375 237.167969 156.066406 236.074219 C 156.90625 237.160156 157.8125 238.398438 158.464844 239.558594 C 160.667969 243.464844 161.304688 249.539062 164.996094 249.539062 C 166.175781 249.539062 167.664062 248.921875 169.621094 247.410156 C 171.074219 246.285156 172.882812 244.640625 174.386719 243.523438 C 174.800781 247.367188 175.699219 250.238281 176.375 253.964844 C 176.566406 255.023438 175.730469 259.117188 175.710938 260.492188 C 175.640625 264.617188 175.664062 266.785156 174.875 270.84375 C 174.269531 270.789062 173.851562 270.742188 173.453125 270.742188 C 172.976562 270.742188 172.53125 270.8125 171.835938 271.019531 L 171.226562 271.597656 C 171.234375 273.460938 171.53125 273.804688 170.886719 275.5625 C 170.285156 275.964844 170.0625 275.921875 169.316406 275.984375 L 169.207031 276.492188 C 169.792969 277.09375 170.3125 277.125 171.140625 277.324219 C 172.082031 278.878906 172.75 287.464844 175.953125 288.355469 C 179.058594 286.851562 177.519531 281.140625 176.855469 278.613281 L 180.449219 278.253906 C 181.542969 276.929688 182.914062 275.625 183.652344 274.164062 C 184.382812 272.71875 184.371094 270.179688 185.457031 269.132812 C 187.078125 269.621094 186.25 270.761719 187.542969 270.761719 C 187.886719 270.761719 188.378906 270.683594 189.109375 270.484375 C 190.191406 269.472656 190.511719 269.160156 191.347656 267.949219 C 192.328125 270.761719 192.902344 272.707031 193.613281 275.601562 C 194.515625 276.507812 195.558594 277.664062 196.65625 278.308594 C 196.855469 278.425781 197.164062 278.449219 197.503906 278.449219 C 197.722656 278.449219 197.953125 278.441406 198.175781 278.441406 C 198.78125 278.441406 199.316406 278.511719 199.335938 279.046875 C 199.441406 281.664062 197.199219 286.917969 200.960938 287.933594 C 204.269531 287.128906 203.253906 280.863281 204.035156 278.109375 C 204.53125 276.375 205.363281 277.382812 205.75 276.078125 L 205.429688 275.703125 L 204.558594 275.730469 C 203.367188 273.96875 205.320312 271.308594 203.28125 270.855469 C 203.109375 270.820312 202.964844 270.804688 202.839844 270.804688 C 202.519531 270.804688 202.308594 270.890625 202.050781 270.890625 C 201.796875 270.890625 201.5 270.808594 201.011719 270.472656 C 199.527344 266.632812 200.011719 262.9375 199.597656 258.925781 C 199.46875 257.675781 198.148438 254.570312 198.238281 253.539062 C 198.546875 250.042969 198.980469 246.28125 199.320312 242.78125 C 201.554688 244.832031 205.59375 248.925781 208.320312 249.617188 C 208.648438 249.699219 208.960938 249.738281 209.25 249.738281 C 214.121094 249.738281 214.285156 238.886719 217.261719 237.375 C 218.230469 238.097656 219.523438 239.605469 220.378906 240.535156 C 219.667969 238.738281 218.351562 234.792969 217.378906 233.257812 C 212.195312 225.074219 207.253906 216.640625 202.515625 208.203125 C 199.550781 202.929688 196.613281 197.644531 193.710938 192.339844 C 192.234375 189.652344 189.390625 184.207031 187.65625 181.902344 L 187.675781 173.851562 C 192.144531 174.628906 220.167969 182.648438 221.476562 184.371094 L 221.367188 185.746094 L 221.765625 186.101562 L 222.214844 185.867188 L 222.464844 184.417969 C 223.398438 183.792969 226.863281 183.300781 228.171875 183.066406 C 233.894531 182.03125 239.679688 181.28125 245.46875 181.28125 C 249.054688 181.28125 252.644531 181.570312 256.21875 182.257812 C 258.515625 182.699219 265.324219 184.136719 266.953125 186.046875 C 267.195312 186.332031 267.421875 187.277344 267.511719 187.703125 L 268.039062 187.695312 C 268.1875 187.351562 268.683594 185.742188 268.886719 185.714844 C 273.976562 185.003906 279.109375 184.699219 284.265625 184.699219 C 301.550781 184.699219 319.070312 188.097656 335.929688 190.816406 C 342.015625 191.796875 348.085938 192.515625 353.078125 196.046875 C 353.640625 196.445312 354.324219 196.722656 354.960938 196.996094 C 351.433594 191.507812 333.136719 180.761719 326.710938 176.578125 C 301.003906 159.78125 274.964844 143.492188 248.613281 127.71875 L 190.097656 93.421875 C 188.964844 90.351562 189.253906 87.636719 185.984375 86.539062 Z M 185.984375 86.539062 " fill-opacity="1" fill-rule="nonzero"/></g><g clip-path="url(#7c7dbdf059)"><path fill="#1b549f" d="M 187.445312 185.3125 C 188.246094 186.597656 210.082031 225.335938 212.21875 229.257812 C 212.238281 229.289062 211.097656 230.988281 211 231.730469 C 210.816406 233.136719 211.222656 234.484375 211.5625 235.855469 C 210.3125 235.9375 208.855469 235.957031 207.394531 235.957031 C 206.113281 235.957031 204.832031 235.941406 203.683594 235.941406 C 203.570312 235.941406 203.457031 235.941406 203.34375 235.941406 C 202.15625 234.703125 200.484375 232.828125 199.035156 232.003906 L 198.851562 231.90625 C 197.488281 231.132812 196.089844 231.027344 194.542969 230.804688 C 194.371094 230.035156 194.179688 229.265625 193.976562 228.503906 C 193.460938 226.597656 192.199219 224.980469 190.472656 224.015625 C 189.398438 223.417969 188.214844 223.171875 187.015625 223.171875 C 185.90625 223.171875 184.785156 223.382812 183.730469 223.71875 C 180.367188 224.789062 180.027344 228.921875 179.050781 230.847656 L 178.464844 231.015625 C 174.378906 231.894531 173.835938 232.625 171.371094 236.003906 C 170.652344 236.035156 169.867188 236.046875 169.050781 236.046875 C 166.902344 236.046875 164.542969 235.964844 162.601562 235.945312 C 162.554688 234.691406 162.5 233.4375 162.425781 232.183594 C 162.230469 229.296875 161.960938 230.480469 160.488281 229.199219 C 161.042969 227.476562 164.417969 222.179688 165.46875 220.433594 C 172.332031 209.019531 178.375 197.003906 185.148438 185.570312 L 185.167969 185.570312 C 185.164062 189.25 185.085938 192.929688 184.929688 196.609375 C 183.933594 197.566406 183.746094 197.589844 184.347656 198.742188 C 184.839844 199.132812 185.316406 199.503906 185.964844 199.503906 C 186.003906 199.503906 186.046875 199.503906 186.085938 199.5 C 186.84375 199.449219 187.34375 199.351562 187.902344 198.769531 C 188.351562 198.300781 188.160156 198.355469 188.3125 197.675781 C 188.3125 197.675781 187.558594 196.601562 187.558594 196.601562 C 187.464844 193.261719 187.445312 188.511719 187.421875 185.3125 Z M 209.984375 237.605469 L 208.316406 240.179688 C 208.0625 240.460938 207.917969 240.515625 207.601562 240.722656 C 206.492188 240.117188 205.628906 238.921875 205.453125 237.664062 Z M 166.53125 237.699219 C 167.277344 237.699219 167.953125 237.761719 168.367188 237.988281 L 168.425781 238.496094 L 167.300781 239.804688 C 166.539062 240.660156 166.867188 240.511719 165.949219 240.789062 C 164.996094 240.417969 164.199219 238.75 163.628906 237.796875 L 163.648438 237.796875 C 163.6875 237.796875 163.730469 237.800781 163.769531 237.800781 C 164.539062 237.800781 165.589844 237.699219 166.53125 237.699219 Z M 185.984375 86.539062 C 183.78125 88.089844 183.261719 90.875 182.382812 93.480469 C 132.8125 121.917969 84.179688 151.953125 36.554688 183.539062 C 33.640625 185.488281 21.121094 193.335938 20.082031 195.304688 L 20.304688 195.84375 C 21.816406 195.761719 24.175781 193.28125 27.53125 192.75 C 36.460938 191.320312 45.398438 189.773438 54.359375 188.554688 C 67.25 186.800781 80.210938 184.503906 93.246094 184.503906 C 94.949219 184.503906 96.652344 184.542969 98.355469 184.625 C 98.679688 184.640625 99.082031 184.644531 99.527344 184.644531 L 99.753906 184.644531 C 101.585938 184.644531 104.027344 184.660156 104.941406 185.570312 L 105.148438 185.765625 C 105.335938 185.949219 105.496094 186.113281 105.671875 186.300781 L 106.253906 186.382812 C 106.398438 185.75 106.398438 185.640625 106.394531 184.984375 C 107.808594 184.257812 110.648438 183.570312 112.257812 183.066406 C 117.367188 181.46875 122.5625 180.824219 127.777344 180.824219 C 135.238281 180.824219 142.75 182.140625 150.128906 183.84375 C 150.5625 184.515625 150.539062 184.671875 150.667969 185.484375 L 151.085938 185.554688 C 151.277344 184.882812 151.242188 184.691406 151.230469 183.980469 C 152.574219 182.886719 181.375 174.578125 185.042969 173.90625 L 185.066406 173.90625 L 185.054688 181.96875 C 183.292969 184.324219 180.757812 189.125 179.269531 191.835938 L 169.871094 208.945312 C 167.292969 213.546875 154.675781 234.679688 153.664062 238.320312 L 153.921875 238.570312 C 155.019531 237.914062 155.375 237.167969 156.066406 236.074219 C 156.90625 237.160156 157.8125 238.398438 158.464844 239.558594 C 160.667969 243.464844 161.304688 249.539062 164.996094 249.539062 C 166.175781 249.539062 167.664062 248.921875 169.621094 247.410156 C 171.074219 246.285156 172.882812 244.640625 174.386719 243.523438 C 174.800781 247.367188 175.699219 250.238281 176.375 253.964844 C 176.566406 255.023438 175.730469 259.117188 175.710938 260.492188 C 175.640625 264.617188 175.664062 266.785156 174.875 270.84375 C 174.269531 270.789062 173.851562 270.742188 173.453125 270.742188 C 172.976562 270.742188 172.53125 270.8125 171.835938 271.019531 L 171.226562 271.597656 C 171.234375 273.460938 171.53125 273.804688 170.886719 275.5625 C 170.285156 275.964844 170.0625 275.921875 169.316406 275.984375 L 169.207031 276.492188 C 169.792969 277.09375 170.3125 277.125 171.140625 277.324219 C 172.082031 278.878906 172.75 287.464844 175.953125 288.355469 C 179.058594 286.851562 177.519531 281.140625 176.855469 278.613281 L 180.449219 278.253906 C 181.542969 276.929688 182.914062 275.625 183.652344 274.164062 C 184.382812 272.71875 184.371094 270.179688 185.457031 269.132812 C 187.078125 269.621094 186.25 270.761719 187.542969 270.761719 C 187.886719 270.761719 188.378906 270.683594 189.109375 270.484375 C 190.191406 269.472656 190.511719 269.160156 191.347656 267.949219 C 192.328125 270.761719 192.902344 272.707031 193.613281 275.601562 C 194.515625 276.507812 195.558594 277.664062 196.65625 278.308594 C 196.855469 278.425781 197.164062 278.449219 197.503906 278.449219 C 197.722656 278.449219 197.953125 278.441406 198.175781 278.441406 C 198.78125 278.441406 199.316406 278.511719 199.335938 279.046875 C 199.441406 281.664062 197.199219 286.917969 200.960938 287.933594 C 204.269531 287.128906 203.253906 280.863281 204.035156 278.109375 C 204.53125 276.375 205.363281 277.382812 205.75 276.078125 L 205.429688 275.703125 L 204.558594 275.730469 C 203.367188 273.96875 205.320312 271.308594 203.28125 270.855469 C 203.109375 270.820312 202.964844 270.804688 202.839844 270.804688 C 202.519531 270.804688 202.308594 270.890625 202.050781 270.890625 C 201.796875 270.890625 201.5 270.808594 201.011719 270.472656 C 199.527344 266.632812 200.011719 262.9375 199.597656 258.925781 C 199.46875 257.675781 198.148438 254.570312 198.238281 253.539062 C 198.546875 250.042969 198.980469 246.28125 199.320312 242.78125 C 201.554688 244.832031 205.59375 248.925781 208.320312 249.617188 C 208.648438 249.699219 208.960938 249.738281 209.25 249.738281 C 214.121094 249.738281 214.285156 238.886719 217.261719 237.375 C 218.230469 238.097656 219.523438 239.605469 220.378906 240.535156 C 219.667969 238.738281 218.351562 234.792969 217.378906 233.257812 C 212.195312 225.074219 207.253906 216.640625 202.515625 208.203125 C 199.550781 202.929688 196.613281 197.644531 193.710938 192.339844 C 192.234375 189.652344 189.390625 184.207031 187.65625 181.902344 L 187.675781 173.851562 C 192.144531 174.628906 220.167969 182.648438 221.476562 184.371094 L 221.367188 185.746094 L 221.765625 186.101562 L 222.214844 185.867188 L 222.464844 184.417969 C 223.398438 183.792969 226.863281 183.300781 228.171875 183.066406 C 233.894531 182.03125 239.679688 181.28125 245.46875 181.28125 C 249.054688 181.28125 252.644531 181.570312 256.21875 182.257812 C 258.515625 182.699219 265.324219 184.136719 266.953125 186.046875 C 267.195312 186.332031 267.421875 187.277344 267.511719 187.703125 L 268.039062 187.695312 C 268.1875 187.351562 268.683594 185.742188 268.886719 185.714844 C 273.976562 185.003906 279.109375 184.699219 284.265625 184.699219 C 301.550781 184.699219 319.070312 188.097656 335.929688 190.816406 C 342.015625 191.796875 348.085938 192.515625 353.078125 196.046875 C 353.640625 196.445312 354.324219 196.722656 354.960938 196.996094 C 351.433594 191.507812 333.136719 180.761719 326.710938 176.578125 C 301.003906 159.78125 274.964844 143.492188 248.613281 127.71875 L 190.097656 93.421875 C 188.964844 90.351562 189.253906 87.636719 185.984375 86.539062 Z M 185.984375 86.539062 " fill-opacity="1" fill-rule="nonzero"/></g><g clip-path="url(#ff031d5e1c)"><path fill="#0f315d" d="M 187.445312 185.3125 C 188.246094 186.597656 210.082031 225.335938 212.21875 229.257812 C 212.238281 229.289062 211.097656 230.988281 211 231.730469 C 210.816406 233.136719 211.222656 234.484375 211.5625 235.855469 C 210.3125 235.9375 208.855469 235.957031 207.394531 235.957031 C 206.113281 235.957031 204.832031 235.941406 203.683594 235.941406 C 203.570312 235.941406 203.457031 235.941406 203.34375 235.941406 C 202.15625 234.703125 200.484375 232.828125 199.035156 232.003906 L 198.851562 231.90625 C 197.488281 231.132812 196.089844 231.027344 194.542969 230.804688 C 194.371094 230.035156 194.179688 229.265625 193.976562 228.503906 C 193.460938 226.597656 192.199219 224.980469 190.472656 224.015625 C 189.398438 223.417969 188.214844 223.171875 187.015625 223.171875 C 185.90625 223.171875 184.785156 223.382812 183.730469 223.71875 C 180.367188 224.789062 180.027344 228.921875 179.050781 230.847656 L 178.464844 231.015625 C 174.378906 231.894531 173.835938 232.625 171.371094 236.003906 C 170.652344 236.035156 169.867188 236.046875 169.050781 236.046875 C 166.902344 236.046875 164.542969 235.964844 162.601562 235.945312 C 162.554688 234.691406 162.5 233.4375 162.425781 232.183594 C 162.230469 229.296875 161.960938 230.480469 160.488281 229.199219 C 161.042969 227.476562 164.417969 222.179688 165.46875 220.433594 C 172.332031 209.019531 178.375 197.003906 185.148438 185.570312 L 185.167969 185.570312 C 185.164062 189.25 185.085938 192.929688 184.929688 196.609375 C 183.933594 197.566406 183.746094 197.589844 184.347656 198.742188 C 184.839844 199.132812 185.316406 199.503906 185.964844 199.503906 C 186.003906 199.503906 186.046875 199.503906 186.085938 199.5 C 186.84375 199.449219 187.34375 199.351562 187.902344 198.769531 C 188.351562 198.300781 188.160156 198.355469 188.3125 197.675781 C 188.3125 197.675781 187.558594 196.601562 187.558594 196.601562 C 187.464844 193.261719 187.445312 188.511719 187.421875 185.3125 Z M 209.984375 237.605469 L 208.316406 240.179688 C 208.0625 240.460938 207.917969 240.515625 207.601562 240.722656 C 206.492188 240.117188 205.628906 238.921875 205.453125 237.664062 Z M 166.53125 237.699219 C 167.277344 237.699219 167.953125 237.761719 168.367188 237.988281 L 168.425781 238.496094 L 167.300781 239.804688 C 166.539062 240.660156 166.867188 240.511719 165.949219 240.789062 C 164.996094 240.417969 164.199219 238.75 163.628906 237.796875 L 163.648438 237.796875 C 163.6875 237.796875 163.730469 237.800781 163.769531 237.800781 C 164.539062 237.800781 165.589844 237.699219 166.53125 237.699219 Z M 185.984375 86.539062 C 183.78125 88.089844 183.261719 90.875 182.382812 93.480469 C 132.8125 121.917969 84.179688 151.953125 36.554688 183.539062 C 33.640625 185.488281 21.121094 193.335938 20.082031 195.304688 L 20.304688 195.84375 C 21.816406 195.761719 24.175781 193.28125 27.53125 192.75 C 36.460938 191.320312 45.398438 189.773438 54.359375 188.554688 C 67.25 186.800781 80.210938 184.503906 93.246094 184.503906 C 94.949219 184.503906 96.652344 184.542969 98.355469 184.625 C 98.679688 184.640625 99.082031 184.644531 99.527344 184.644531 L 99.753906 184.644531 C 101.585938 184.644531 104.027344 184.660156 104.941406 185.570312 L 105.148438 185.765625 C 105.335938 185.949219 105.496094 186.113281 105.671875 186.300781 L 106.253906 186.382812 C 106.398438 185.75 106.398438 185.640625 106.394531 184.984375 C 107.808594 184.257812 110.648438 183.570312 112.257812 183.066406 C 117.367188 181.46875 122.5625 180.824219 127.777344 180.824219 C 135.238281 180.824219 142.75 182.140625 150.128906 183.84375 C 150.5625 184.515625 150.539062 184.671875 150.667969 185.484375 L 151.085938 185.554688 C 151.277344 184.882812 151.242188 184.691406 151.230469 183.980469 C 152.574219 182.886719 181.375 174.578125 185.042969 173.90625 L 185.066406 173.90625 L 185.054688 181.96875 C 183.292969 184.324219 180.757812 189.125 179.269531 191.835938 L 169.871094 208.945312 C 167.292969 213.546875 154.675781 234.679688 153.664062 238.320312 L 153.921875 238.570312 C 155.019531 237.914062 155.375 237.167969 156.066406 236.074219 C 156.90625 237.160156 157.8125 238.398438 158.464844 239.558594 C 160.667969 243.464844 161.304688 249.539062 164.996094 249.539062 C 166.175781 249.539062 167.664062 248.921875 169.621094 247.410156 C 171.074219 246.285156 172.882812 244.640625 174.386719 243.523438 C 174.800781 247.367188 175.699219 250.238281 176.375 253.964844 C 176.566406 255.023438 175.730469 259.117188 175.710938 260.492188 C 175.640625 264.617188 175.664062 266.785156 174.875 270.84375 C 174.269531 270.789062 173.851562 270.742188 173.453125 270.742188 C 172.976562 270.742188 172.53125 270.8125 171.835938 271.019531 L 171.226562 271.597656 C 171.234375 273.460938 171.53125 273.804688 170.886719 275.5625 C 170.285156 275.964844 170.0625 275.921875 169.316406 275.984375 L 169.207031 276.492188 C 169.792969 277.09375 170.3125 277.125 171.140625 277.324219 C 172.082031 278.878906 172.75 287.464844 175.953125 288.355469 C 179.058594 286.851562 177.519531 281.140625 176.855469 278.613281 L 180.449219 278.253906 C 181.542969 276.929688 182.914062 275.625 183.652344 274.164062 C 184.382812 272.71875 184.371094 270.179688 185.457031 269.132812 C 187.078125 269.621094 186.25 270.761719 187.542969 270.761719 C 187.886719 270.761719 188.378906 270.683594 189.109375 270.484375 C 190.191406 269.472656 190.511719 269.160156 191.347656 267.949219 C 192.328125 270.761719 192.902344 272.707031 193.613281 275.601562 C 194.515625 276.507812 195.558594 277.664062 196.65625 278.308594 C 196.855469 278.425781 197.164062 278.449219 197.503906 278.449219 C 197.722656 278.449219 197.953125 278.441406 198.175781 278.441406 C 198.78125 278.441406 199.316406 278.511719 199.335938 279.046875 C 199.441406 281.664062 197.199219 286.917969 200.960938 287.933594 C 204.269531 287.128906 203.253906 280.863281 204.035156 278.109375 C 204.53125 276.375 205.363281 277.382812 205.75 276.078125 L 205.429688 275.703125 L 204.558594 275.730469 C 203.367188 273.96875 205.320312 271.308594 203.28125 270.855469 C 203.109375 270.820312 202.964844 270.804688 202.839844 270.804688 C 202.519531 270.804688 202.308594 270.890625 202.050781 270.890625 C 201.796875 270.890625 201.5 270.808594 201.011719 270.472656 C 199.527344 266.632812 200.011719 262.9375 199.597656 258.925781 C 199.46875 257.675781 198.148438 254.570312 198.238281 253.539062 C 198.546875 250.042969 198.980469 246.28125 199.320312 242.78125 C 201.554688 244.832031 205.59375 248.925781 208.320312 249.617188 C 208.648438 249.699219 208.960938 249.738281 209.25 249.738281 C 214.121094 249.738281 214.285156 238.886719 217.261719 237.375 C 218.230469 238.097656 219.523438 239.605469 220.378906 240.535156 C 219.667969 238.738281 218.351562 234.792969 217.378906 233.257812 C 212.195312 225.074219 207.253906 216.640625 202.515625 208.203125 C 199.550781 202.929688 196.613281 197.644531 193.710938 192.339844 C 192.234375 189.652344 189.390625 184.207031 187.65625 181.902344 L 187.675781 173.851562 C 192.144531 174.628906 220.167969 182.648438 221.476562 184.371094 L 221.367188 185.746094 L 221.765625 186.101562 L 222.214844 185.867188 L 222.464844 184.417969 C 223.398438 183.792969 226.863281 183.300781 228.171875 183.066406 C 233.894531 182.03125 239.679688 181.28125 245.46875 181.28125 C 249.054688 181.28125 252.644531 181.570312 256.21875 182.257812 C 258.515625 182.699219 265.324219 184.136719 266.953125 186.046875 C 267.195312 186.332031 267.421875 187.277344 267.511719 187.703125 L 268.039062 187.695312 C 268.1875 187.351562 268.683594 185.742188 268.886719 185.714844 C 273.976562 185.003906 279.109375 184.699219 284.265625 184.699219 C 301.550781 184.699219 319.070312 188.097656 335.929688 190.816406 C 342.015625 191.796875 348.085938 192.515625 353.078125 196.046875 C 353.640625 196.445312 354.324219 196.722656 354.960938 196.996094 C 351.433594 191.507812 333.136719 180.761719 326.710938 176.578125 C 301.003906 159.78125 274.964844 143.492188 248.613281 127.71875 L 190.097656 93.421875 C 188.964844 90.351562 189.253906 87.636719 185.984375 86.539062 Z M 185.984375 86.539062 " fill-opacity="1" fill-rule="nonzero"/></g></svg>